HIERARCHY
ROOT hip
{
  OFFSET 0 0 0
  CHANNELS 6 Xposition Yposition Zposition Zrotation Yrotation Xrotation
  JOINT abdomen
  {
    OFFSET 0 20.6881 -0.73152
    CHANNELS 3 Zrotation Xrotation Yrotation
    JOINT chest
    {
      OFFSET 0 11.7043 -0.48768
      CHANNELS 3 Zrotation Xrotation Yrotation
      JOINT neck
      {
        OFFSET 0 22.1894 -2.19456
        CHANNELS 3 Zrotation Xrotation Yrotation
        JOINT head
        {
          OFFSET -0.24384 7.07133 1.2192
          CHANNELS 3 Zrotation Xrotation Yrotation
          JOINT leftEye
          {
            OFFSET 4.14528 8.04674 8.04672
            CHANNELS 3 Zrotation Xrotation Yrotation
            End Site
            {
              OFFSET 1 0 0
            }
          }
          JOINT rightEye
          {
            OFFSET -3.6576 8.04674 8.04672
            CHANNELS 3 Zrotation Xrotation Yrotation
            End Site
            {
              OFFSET 1 0 0
            }
          }
        }
      }
      JOINT rCollar
      {
        OFFSET -2.68224 19.2634 -4.8768
        CHANNELS 3 Zrotation Xrotation Yrotation
        JOINT rShldr
        {
          OFFSET -8.77824 -1.95073 1.46304
          CHANNELS 3 Zrotation Xrotation Yrotation
          JOINT rForeArm
          {
            OFFSET -28.1742 -1.7115 0.48768
            CHANNELS 3 Zrotation Xrotation Yrotation
            JOINT rHand
            {
              OFFSET -22.5879 0.773209 7.07136
              CHANNELS 3 Zrotation Xrotation Yrotation
              JOINT rThumb1
              {
                OFFSET -1.2192 -0.487915 3.41376
                CHANNELS 3 Zrotation Xrotation Yrotation
                JOINT rThumb2
                {
                  OFFSET -3.37035 -0.52449 3.41376
                  CHANNELS 3 Zrotation Xrotation Yrotation
                  End Site
                  {
                    OFFSET -1.78271 -1.18214 1.43049
                  }
                }
              }
              JOINT rIndex1
              {
                OFFSET -7.75947 0.938293 5.60832
                CHANNELS 3 Zrotation Xrotation Yrotation
                JOINT rIndex2
                {
                  OFFSET -2.54057 -0.884171 1.56538
                  CHANNELS 3 Zrotation Xrotation Yrotation
                  End Site
                  {
                    OFFSET -1.62519 -0.234802 1.16502
                  }
                }
              }
              JOINT rMid1
              {
                OFFSET -8.24714 1.18213 3.41376
                CHANNELS 3 Zrotation Xrotation Yrotation
                JOINT rMid2
                {
                  OFFSET -3.10165 -0.590103 1.0647
                  CHANNELS 3 Zrotation Xrotation Yrotation
                  End Site
                  {
                    OFFSET -2.48547 -0.328903 0.83742
                  }
                }
              }
              JOINT rRing1
              {
                OFFSET -8.82822 0.546677 1.51678
                CHANNELS 3 Zrotation Xrotation Yrotation
                JOINT rRing2
                {
                  OFFSET -2.60934 -0.819778 -0.0198488
                  CHANNELS 3 Zrotation Xrotation Yrotation
                  End Site
                  {
                    OFFSET -2.33842 -0.294052 0.168128
                  }
                }
              }
              JOINT rPinky1
              {
                OFFSET -8.27202 -0.0477905 -0.4584
                CHANNELS 3 Zrotation Xrotation Yrotation
                JOINT rPinky2
                {
                  OFFSET -1.82734 -0.647385 -0.700984
                  CHANNELS 3 Zrotation Xrotation Yrotation
                  End Site
                  {
                    OFFSET -1.69225 -0.51767 -0.607171
                  }
                }
              }
            }
          }
        }
      }
      JOINT lCollar
      {
        OFFSET 2.68224 19.2634 -4.8768
        CHANNELS 3 Zrotation Xrotation Yrotation
        JOINT lShldr
        {
          OFFSET 8.77824 -1.95073 1.46304
          CHANNELS 3 Zrotation Xrotation Yrotation
          JOINT lForeArm
          {
            OFFSET 28.1742 -1.7115 0.48768
            CHANNELS 3 Zrotation Xrotation Yrotation
            JOINT lHand
            {
              OFFSET 22.5879 0.773209 7.07136
              CHANNELS 3 Zrotation Xrotation Yrotation
              JOINT lThumb1
              {
                OFFSET 1.2192 -0.487915 3.41376
                CHANNELS 3 Zrotation Xrotation Yrotation
                JOINT lThumb2
                {
                  OFFSET 3.37035 -0.52449 3.41376
                  CHANNELS 3 Zrotation Xrotation Yrotation
                  End Site
                  {
                    OFFSET 1.78271 -1.18214 1.43049
                  }
                }
              }
              JOINT lIndex1
              {
                OFFSET 7.75947 0.938293 5.60832
                CHANNELS 3 Zrotation Xrotation Yrotation
                JOINT lIndex2
                {
                  OFFSET 2.54057 -0.884171 1.56538
                  CHANNELS 3 Zrotation Xrotation Yrotation
                  End Site
                  {
                    OFFSET 1.62519 -0.234802 1.16502
                  }
                }
              }
              JOINT lMid1
              {
                OFFSET 8.24714 1.18213 3.41376
                CHANNELS 3 Zrotation Xrotation Yrotation
                JOINT lMid2
                {
                  OFFSET 3.10165 -0.590103 1.0647
                  CHANNELS 3 Zrotation Xrotation Yrotation
                  End Site
                  {
                    OFFSET 2.48547 -0.328903 0.83742
                  }
                }
              }
              JOINT lRing1
              {
                OFFSET 8.82822 0.546677 1.51678
                CHANNELS 3 Zrotation Xrotation Yrotation
                JOINT lRing2
                {
                  OFFSET 2.60934 -0.819778 -0.0198488
                  CHANNELS 3 Zrotation Xrotation Yrotation
                  End Site
                  {
                    OFFSET 2.33842 -0.294052 0.168128
                  }
                }
              }
              JOINT lPinky1
              {
                OFFSET 8.27202 -0.0477905 -0.4584
                CHANNELS 3 Zrotation Xrotation Yrotation
                JOINT lPinky2
                {
                  OFFSET 1.82734 -0.647385 -0.700984
                  CHANNELS 3 Zrotation Xrotation Yrotation
                  End Site
                  {
                    OFFSET 1.69225 -0.51767 -0.607171
                  }
                }
              }
            }
          }
        }
      }
    }
  }
  JOINT rButtock
  {
    OFFSET -8.77824 4.35084 1.2192
    CHANNELS 3 Zrotation Xrotation Yrotation
    JOINT rThigh
    {
      OFFSET 0 -1.70687 -2.19456
      CHANNELS 3 Zrotation Xrotation Yrotation
      JOINT rShin
      {
        OFFSET 0 -36.8199 0.73152
        CHANNELS 3 Zrotation Xrotation Yrotation
        JOINT rFoot
        {
          OFFSET 0.73152 -45.1104 -5.12064
          CHANNELS 3 Zrotation Xrotation Yrotation
          End Site
          {
            OFFSET -1.1221 -3.69964 12.103
          }
        }
      }
    }
  }
  JOINT lButtock
  {
    OFFSET 8.77824 4.35084 1.2192
    CHANNELS 3 Zrotation Xrotation Yrotation
    JOINT lThigh
    {
      OFFSET 0 -1.70687 -2.19456
      CHANNELS 3 Zrotation Xrotation Yrotation
      JOINT lShin
      {
        OFFSET 0 -36.8199 0.73152
        CHANNELS 3 Zrotation Xrotation Yrotation
        JOINT lFoot
        {
          OFFSET -0.73152 -45.1104 -5.12064
          CHANNELS 3 Zrotation Xrotation Yrotation
          End Site
          {
            OFFSET 1.1221 -3.69964 12.103
          }
        }
      }
    }
  }
}
MOTION
Frames:	7
Frame Time:	0.00833333
46.7273 85.5269 255.871 0.0 0.0 0.0 2.34101 -0.00222427 0.0637216 0.646598 0.00594968 0.111939 1.92015e-14 -7.95139e-16 2.48481e-17 5.73556e-14 3.18055e-15 9.93923e-17 -0.0 0.0 0.0 -0.0 0.0 0.0 9.49117e-15 3.68839e-17 1.49089e-16 2.0278e-13 6.89534e-16 1.39149e-15 3.48574e-12 -1.00704e-12 -3.18055e-14 3.97106e-11 1.1781e-12 5.725e-14 9.37087e-11 3.69847e-13 6.67917e-14 1.61817e-10 6.36111e-13 9.38264e-14 9.37143e-11 3.70137e-13 4.45278e-14 7.73091 5.47488 0.417314 9.37095e-11 3.69541e-13 6.04305e-14 2.90554 0.965183 0.102902 9.37147e-11 3.70236e-13 5.48646e-14 10.2786 0.731801 0.0259123 9.37069e-11 3.68149e-13 6.04305e-14 2.22167 -0.733487 -0.20892 9.39401e-15 3.45544e-17 -9.93923e-17 1.99679e-13 5.96354e-16 -1.98785e-16 3.45851e-12 1.07185e-12 -4.45278e-14 3.97719e-11 -8.97712e-13 7.95139e-14 9.37825e-11 3.77573e-13 6.04305e-14 1.61972e-10 6.55194e-13 9.78021e-14 9.37767e-11 3.81269e-13 6.36111e-14 -7.73091 5.47488 -0.417314 9.37827e-11 3.77591e-13 6.04305e-14 -2.90554 0.965183 -0.102902 9.3777e-11 3.78088e-13 6.04305e-14 -10.2786 0.731801 -0.0259123 9.37906e-11 3.79281e-13 5.725e-14 -2.22167 -0.733487 0.20892 -2.03217e-16 0.0 -3.88251e-19 2.21541 -8.02974 -0.231354 0.00607223 8.9737 0.152077 -0.477605 -0.951465 0.034855 2.03217e-16 0.0 3.88251e-19 1.35199 -1.92788 -0.00535667 0.00846711 -2.07867 0.0694648 0.423944 3.99897 -0.127302
45.306 84.1537 243.823 -179.233 -20.1339 178.541 2.92207 1.18282 1.78845 0.27339 -2.2561 0.616564 1.75212 3.34629 3.66332 -1.56874 -3.47837 6.84408 -0.0 0.0 0.0 -0.0 0.0 0.0 2.59416e-14 -2.68342e-14 -1.77707e-13 22.4295 12.2792 -3.72938 -5.04797 -2.48685 7.66343 0.0315066 3.93907 0.548884 5.45407e-11 7.97408e-11 -2.50165e-10 9.15158e-11 1.36603e-10 -4.31376e-10 5.45472e-11 7.97406e-11 -2.5018e-10 7.73091 5.47488 0.417314 5.45408e-11 7.97402e-11 -2.5017e-10 2.90554 0.965183 0.102902 5.45464e-11 7.97411e-11 -2.50172e-10 10.2786 0.731801 0.0259123 5.45379e-11 7.9741e-11 -2.50165e-10 2.22167 -0.733487 -0.20892 2.58595e-14 -2.68358e-14 -1.77928e-13 -21.9117 7.51868 2.26168 5.07275 -2.50475 -7.69421 -0.0271859 3.65876 -0.510424 6.1906e-10 1.23767e-09 -2.36805e-10 1.06725e-09 2.14048e-09 -4.16223e-10 6.19055e-10 1.23767e-09 -2.36801e-10 -7.73091 5.47488 -0.417314 6.19061e-10 1.23767e-09 -2.36807e-10 -2.90554 0.965183 -0.102902 6.19054e-10 1.23767e-09 -2.36806e-10 -10.2786 0.731801 -0.0259123 6.19068e-10 1.23767e-09 -2.3681e-10 -2.22167 -0.733487 0.20892 -2.03217e-16 0.0 -3.88251e-19 3.59965 -8.88004 0.722614 0.0571352 15.8165 0.346112 -2.43057 -7.17021 -9.14705 2.03217e-16 0.0 3.88251e-19 0.167756 -5.28429 -6.67901 -0.0242166 7.25808 -0.109499 0.573949 -2.89028 0.894818
45.3127 84.151 243.823 -179.21 -20.1236 178.552 3.46149 2.43413 3.61565 -0.078035 -4.64692 1.15336 3.13536 6.83633 7.5765 -2.32513 -6.98931 14.1592 -0.0 0.0 0.0 -0.0 0.0 0.0 4.48034e-14 -5.70356e-14 -3.71271e-13 48.0365 25.0794 -8.28041 -9.66799 -4.96764 15.8109 -0.0179892 8.09976 1.13751 3.99044e-12 1.72803e-10 -5.27538e-10 1.25636e-12 2.96006e-10 -9.09542e-10 3.99799e-12 1.72802e-10 -5.27545e-10 7.73091 5.47488 0.417314 3.98963e-12 1.72802e-10 -5.2754e-10 2.90554 0.965183 0.102902 3.99577e-12 1.72803e-10 -5.27538e-10 10.2786 0.731801 0.0259123 3.98649e-12 1.72805e-10 -5.27531e-10 2.22167 -0.733487 -0.20892 4.47365e-14 -5.70363e-14 -3.71463e-13 -45.7425 15.4302 4.7837 9.7104 -5.00175 -15.8742 0.0155164 7.52596 -1.05703 1.18922e-09 2.58212e-09 -5.03387e-10 2.04978e-09 4.46558e-09 -8.84503e-10 1.18922e-09 2.58213e-09 -5.03383e-10 -7.73091 5.47488 -0.417314 1.18922e-09 2.58212e-09 -5.03392e-10 -2.90554 0.965183 -0.102902 1.18921e-09 2.58212e-09 -5.03391e-10 -10.2786 0.731801 -0.0259123 1.18923e-09 2.58212e-09 -5.03396e-10 -2.22167 -0.733487 0.20892 -2.03217e-16 0.0 -3.88251e-19 5.09615 -9.77616 1.73459 0.0560924 23.0504 0.571874 -6.67426 -13.1801 -19.2322 2.03217e-16 0.0 3.88251e-19 -1.93448 -8.65175 -13.8403 0.00687528 17.1285 -0.310873 1.00458 -10.1666 2.00971
45.3383 84.1508 243.82 -179.089 -20.1293 178.532 3.87013 3.53977 5.2468 -0.352756 -6.77787 1.63582 3.96507 9.87367 11.1382 -2.24165 -9.83779 20.8142 -0.0 0.0 0.0 -0.0 0.0 0.0 5.88423e-14 -8.05764e-14 -5.33419e-13 73.0135 36.1363 -13.5808 -13.1955 -6.92785 23.1472 -0.13603 11.8128 1.67832 -2.37953e-11 2.38483e-10 -7.50629e-10 -4.90875e-11 4.08536e-10 -1.29432e-09 -2.37868e-11 2.38481e-10 -7.50629e-10 7.73091 5.47488 0.417314 -2.37968e-11 2.38482e-10 -7.50629e-10 2.90554 0.965183 0.102902 -2.37902e-11 2.38483e-10 -7.50624e-10 10.2786 0.731801 0.0259123 -2.38001e-11 2.38487e-10 -7.50616e-10 2.22167 -0.733487 -0.20892 5.87904e-14 -8.05765e-14 -5.33586e-13 -67.6345 22.4096 7.27902 13.2483 -6.97341 -23.2423 0.117083 10.9728 -1.55662 1.66961e-09 3.71226e-09 -7.10534e-10 2.87781e-09 6.42013e-09 -1.24887e-09 1.66961e-09 3.71226e-09 -7.10529e-10 -7.73091 5.47488 -0.417314 1.66962e-09 3.71226e-09 -7.10541e-10 -2.90554 0.965183 -0.102902 1.66961e-09 3.71226e-09 -7.1054e-10 -10.2786 0.731801 -0.0259123 1.66962e-09 3.71226e-09 -7.10546e-10 -2.22167 -0.733487 0.20892 -2.03217e-16 0.0 -3.88251e-19 6.45444 -10.5716 2.64495 -0.000446278 29.5004 0.802662 -12.2971 -17.5908 -28.7545 2.03217e-16 0.0 3.88251e-19 -4.53079 -11.3691 -20.3574 0.0999138 25.9307 -0.516725 1.63476 -16.6474 3.06354
45.3329 84.1519 243.822 -179.112 -20.1417 178.534 4.10376 4.29374 6.3793 -0.521078 -8.26134 1.97303 4.32318 11.9362 13.6805 -1.78456 -11.5987 25.5495 -0.0 0.0 0.0 -0.0 0.0 0.0 6.08241e-14 -8.7466e-14 -6.17028e-13 92.1155 43.4829 -18.5317 -15.347 -8.09442 28.3058 -0.26168 14.411 2.0696 5.33061e-12 2.35709e-10 -8.38016e-10 3.57812e-13 4.03883e-10 -1.44561e-09 5.33975e-12 2.35707e-10 -8.38013e-10 7.73091 5.47488 0.417314 5.32867e-12 2.35707e-10 -8.38016e-10 2.90554 0.965183 0.102902 5.33558e-12 2.35709e-10 -8.38009e-10 10.2786 0.731801 0.0259123 5.32524e-12 2.35713e-10 -8.38e-10 2.22167 -0.733487 -0.20892 6.07864e-14 -8.74656e-14 -6.17177e-13 -83.2995 27.197 9.23925 15.4059 -8.1468 -28.4283 0.224451 13.3719 -1.91454 1.9256e-09 4.30659e-09 -7.69093e-10 3.31956e-09 7.44829e-09 -1.35343e-09 1.9256e-09 4.3066e-09 -7.69087e-10 -7.73091 5.47488 -0.417314 1.92561e-09 4.30659e-09 -7.69099e-10 -2.90554 0.965183 -0.102902 1.92559e-09 4.30659e-09 -7.69099e-10 -10.2786 0.731801 -0.0259123 1.92561e-09 4.30659e-09 -7.69106e-10 -2.22167 -0.733487 0.20892 -2.03217e-16 0.0 -3.88251e-19 7.40636 -11.1223 3.29054 -0.0768993 33.9925 0.987698 -17.1609 -19.9167 -35.6992 2.03217e-16 0.0 3.88251e-19 -6.72541 -13.0424 -24.9674 0.209219 32.0634 -0.684644 2.21243 -21.1611 3.83168
45.3176 84.1507 243.824 -179.2 -20.1208 178.564 4.15433 4.55835 6.80388 -0.578312 -8.83934 2.09898 4.43288 12.7508 14.7023 -1.53508 -12.2347 27.4432 -0.0 0.0 0.0 -0.0 0.0 0.0 4.30993e-14 -6.89567e-14 -6.04919e-13 100.123 46.25 -20.907 -16.1244 -8.49679 30.3324 -0.322148 15.4564 2.23068 1.51295e-10 1.25013e-10 -7.31603e-10 2.53771e-10 2.14806e-10 -1.26392e-09 1.51304e-10 1.25012e-10 -7.31601e-10 7.73091 5.47488 0.417314 1.51293e-10 1.25012e-10 -7.31605e-10 2.90554 0.965183 0.102902 1.513e-10 1.25013e-10 -7.31597e-10 10.2786 0.731801 0.0259123 1.5129e-10 1.25017e-10 -7.31588e-10 2.22167 -0.733487 -0.20892 4.30798e-14 -6.8956e-14 -6.0506e-13 -89.5284 29.0175 10.0887 16.1889 -8.55443 -30.4745 0.274457 14.2989 -2.05563 1.92011e-09 4.24579e-09 -6.00011e-10 3.31176e-09 7.34392e-09 -1.06101e-09 1.92011e-09 4.2458e-09 -6.00004e-10 -7.73091 5.47488 -0.417314 1.92011e-09 4.2458e-09 -6.00015e-10 -2.90554 0.965183 -0.102902 1.9201e-09 4.24579e-09 -6.00015e-10 -10.2786 0.731801 -0.0259123 1.92012e-09 4.24579e-09 -6.00023e-10 -2.22167 -0.733487 0.20892 -2.03217e-16 0.0 -3.88251e-19 7.7579 -11.3361 3.56226 -0.115453 35.7426 1.06751 -19.2664 -20.6526 -38.4703 2.03217e-16 0.0 3.88251e-19 -7.66441 -13.6487 -26.7269 0.263079 34.4593 -0.75428 2.43293 -22.9425 4.06467
45.3198 84.1487 243.823 -179.194 -20.1066 178.569 4.08938 4.47611 6.72139 -0.565123 -8.77102 2.07222 4.4615 12.7066 14.6105 -1.59451 -12.1812 27.2679 -0.0 0.0 0.0 -0.0 0.0 0.0 1.14328e-14 -3.24048e-14 -5.23763e-13 99.2713 45.9743 -20.6769 -16.0379 -8.45204 30.103 -0.31738 15.3934 2.22073 3.78946e-10 -6.21933e-11 -4.86945e-10 6.49816e-10 -1.05032e-10 -8.44669e-10 3.78955e-10 -6.21942e-11 -4.86946e-10 7.73091 5.47488 0.417314 3.78944e-10 -6.21951e-11 -4.86949e-10 2.90554 0.965183 0.102902 3.78952e-10 -6.2193e-11 -4.86943e-10 10.2786 0.731801 0.0259123 3.78941e-10 -6.21922e-11 -4.86933e-10 2.22167 -0.733487 -0.20892 1.14344e-14 -3.24037e-14 -5.23903e-13 -88.8261 28.7531 10.0294 16.1091 -8.51566 -30.2588 0.267875 14.1753 -2.03678 1.72534e-09 3.71253e-09 -2.69264e-10 2.97849e-09 6.42278e-09 -4.86612e-10 1.72534e-09 3.71253e-09 -2.69254e-10 -7.73091 5.47488 -0.417314 1.72534e-09 3.71253e-09 -2.69263e-10 -2.90554 0.965183 -0.102902 1.72533e-09 3.71253e-09 -2.69264e-10 -10.2786 0.731801 -0.0259123 1.72534e-09 3.71253e-09 -2.69273e-10 -2.22167 -0.733487 0.20892 -2.03217e-16 0.0 -3.88251e-19 7.67437 -11.3103 3.56545 -0.108749 35.5345 1.05925 -19.0574 -20.6312 -38.1528 2.03217e-16 0.0 3.88251e-19 -7.55606 -13.6018 -26.4122 0.255163 34.1864 -0.73859 2.33271 -22.7769 3.88209
